<svg id="svg" version="1.1" xmlns="http://www.w3.org/2000/svg" xmlns:xlink="http://www.w3.org/1999/xlink" width="400" height="399.0279465370595" viewBox="0, 0, 400,399.0279465370595"><g id="svgg"><path id="path0" d="M308.443 1.869 C 308.315 1.998,272.680 2.343,229.255 2.636 C 74.573 3.682,45.737 3.952,44.511 4.365 C 43.852 4.587,41.966 5.151,40.319 5.619 C 38.673 6.086,37.236 6.595,37.126 6.748 C 37.016 6.901,36.048 7.356,34.975 7.759 C 31.173 9.186,20.313 21.839,16.498 29.287 C 16.145 29.975,15.726 30.629,15.567 30.739 C 15.407 30.848,14.892 31.657,14.422 32.535 C 13.951 33.413,12.788 35.569,11.836 37.325 C 10.884 39.082,9.884 41.193,9.613 42.016 C 9.342 42.839,8.954 43.513,8.751 43.513 C 8.549 43.513,8.383 43.700,8.383 43.929 C 8.383 44.158,7.868 45.460,7.238 46.823 C 6.609 48.186,5.776 50.289,5.389 51.497 C 5.002 52.705,4.544 53.872,4.372 54.092 C 4.201 54.311,3.521 56.647,2.861 59.281 L 1.663 64.072 1.219 136.327 C 0.118 315.642,0.046 333.107,0.407 333.543 C 0.612 333.789,0.977 335.774,1.218 337.953 C 1.460 340.133,2.093 343.598,2.625 345.652 C 3.157 347.707,3.593 349.656,3.593 349.983 C 3.593 350.310,3.851 351.144,4.166 351.836 C 4.481 352.528,5.114 354.337,5.571 355.857 C 6.029 357.377,6.554 358.814,6.739 359.051 C 6.923 359.287,7.393 360.334,7.783 361.377 C 8.173 362.420,8.618 363.273,8.773 363.273 C 8.927 363.273,9.289 363.987,9.577 364.860 C 9.865 365.732,10.433 366.803,10.839 367.238 C 11.245 367.674,11.577 368.137,11.577 368.268 C 11.577 368.547,14.964 373.777,15.914 374.966 C 18.929 378.738,23.791 383.553,26.839 385.786 C 28.215 386.794,29.611 387.852,29.940 388.135 C 30.269 388.419,31.257 389.004,32.136 389.435 C 33.014 389.867,33.822 390.329,33.932 390.462 C 34.315 390.928,40.134 393.549,41.916 394.059 C 42.904 394.341,43.807 394.706,43.924 394.871 C 45.500 397.106,60.879 397.697,110.778 397.439 C 213.218 396.908,338.366 396.739,340.037 397.128 C 341.716 397.519,353.132 395.624,353.693 394.861 C 353.802 394.711,354.970 394.260,356.287 393.857 C 357.605 393.455,359.401 392.814,360.279 392.434 C 361.158 392.054,362.505 391.499,363.273 391.201 C 366.051 390.123,373.602 386.045,374.712 385.022 C 376.275 383.583,377.044 382.920,380.040 380.433 C 381.467 379.248,383.312 377.552,384.139 376.664 C 384.967 375.776,386.808 373.843,388.231 372.368 C 389.654 370.893,390.818 369.473,390.818 369.212 C 390.818 368.951,391.267 368.149,391.816 367.430 C 392.365 366.710,392.814 365.654,392.814 365.082 C 392.814 364.511,393.072 363.646,393.387 363.160 C 393.703 362.673,394.267 360.659,394.641 358.683 C 395.015 356.707,395.421 354.820,395.542 354.491 C 396.809 351.057,397.199 339.590,397.567 294.922 C 397.774 269.954,398.026 249.385,398.128 249.213 C 398.338 248.864,399.040 90.137,398.933 67.465 C 398.836 46.826,398.696 43.325,397.862 40.519 C 397.470 39.202,396.946 37.426,396.697 36.574 C 396.448 35.722,396.047 34.823,395.806 34.578 C 395.565 34.333,394.957 33.278,394.455 32.236 C 393.952 31.193,393.400 30.339,393.226 30.339 C 393.053 30.339,392.685 29.794,392.409 29.126 C 392.133 28.459,391.572 27.735,391.163 27.516 C 390.754 27.297,390.419 26.909,390.419 26.655 C 390.419 26.400,389.925 25.660,389.321 25.010 C 388.718 24.360,388.493 23.979,388.822 24.162 C 389.152 24.345,388.837 23.942,388.124 23.265 C 387.410 22.588,386.826 21.779,386.826 21.466 C 386.826 20.725,384.998 19.011,384.522 19.305 C 384.141 19.540,381.482 16.850,381.453 16.201 C 381.444 16.000,381.188 15.752,380.883 15.650 C 380.546 15.538,380.438 15.643,380.607 15.916 C 381.086 16.691,380.607 16.414,379.287 15.153 C 378.589 14.486,378.116 13.780,378.237 13.584 C 378.357 13.389,378.287 13.124,378.081 12.997 C 377.874 12.869,377.623 13.081,377.522 13.468 C 377.389 13.977,377.325 14.004,377.292 13.567 C 377.266 13.235,376.527 12.651,375.649 12.271 C 374.770 11.891,374.052 11.437,374.052 11.263 C 374.052 11.089,373.064 10.512,371.856 9.980 C 370.649 9.448,369.661 8.886,369.661 8.731 C 369.661 8.576,368.807 8.127,367.764 7.733 C 366.722 7.339,365.653 6.808,365.391 6.552 C 365.128 6.297,363.691 5.763,362.197 5.364 C 360.703 4.966,359.377 4.489,359.250 4.303 C 359.123 4.118,357.338 3.646,355.283 3.254 C 353.227 2.862,351.474 2.325,351.385 2.060 C 351.218 1.557,308.944 1.369,308.443 1.869 M3.892 6.419 C 3.508 6.643,3.194 7.087,3.194 7.405 C 3.194 8.303,3.743 8.084,4.254 6.983 C 4.508 6.436,4.687 5.993,4.653 6.000 C 4.619 6.007,4.276 6.195,3.892 6.419 M358.683 13.937 C 371.478 18.091,383.133 29.487,386.889 41.517 C 388.006 45.094,387.970 30.454,387.251 187.824 C 386.553 340.430,386.411 352.357,385.253 355.680 C 380.258 370.017,363.674 383.256,348.303 385.176 C 340.912 386.100,43.279 386.453,40.897 385.541 C 29.462 381.163,17.124 362.182,13.576 343.513 C 13.117 341.098,12.364 337.637,11.902 335.823 C 10.970 332.165,10.971 330.413,11.972 211.178 C 12.176 186.916,12.450 146.856,12.581 122.156 L 12.819 77.246 13.813 70.060 C 17.141 45.995,27.020 26.333,39.998 17.945 C 44.529 15.017,40.213 15.241,100.599 14.790 C 130.569 14.566,175.659 14.189,200.798 13.951 C 342.035 12.616,354.612 12.615,358.683 13.937 M397.985 19.126 C 398.525 20.136,399.313 20.232,399.126 19.266 C 399.053 18.884,398.666 18.509,398.266 18.432 C 397.643 18.312,397.603 18.412,397.985 19.126 M190.818 60.637 C 190.818 60.834,191.402 61.510,192.116 62.139 C 198.057 67.379,204.012 76.279,205.336 81.899 C 205.473 82.483,205.947 83.804,206.390 84.836 L 207.194 86.712 226.889 86.569 C 249.026 86.410,248.156 86.531,247.777 83.648 C 247.277 79.857,245.102 67.755,244.276 64.172 L 243.379 60.279 217.099 60.279 C 201.869 60.279,190.818 60.430,190.818 60.637 M146.151 90.077 C 137.659 91.918,130.485 103.729,124.121 126.347 C 123.442 128.762,122.469 132.086,121.959 133.733 C 121.450 135.379,120.943 137.131,120.833 137.625 L 120.634 138.523 131.319 138.523 L 142.005 138.523 142.833 136.427 C 143.288 135.274,145.379 130.110,147.479 124.950 C 149.579 119.790,151.297 115.524,151.297 115.469 C 151.297 115.414,154.558 115.369,158.544 115.369 L 165.790 115.369 165.558 110.452 C 165.327 105.570,164.451 101.927,162.739 98.722 C 162.410 98.108,161.830 97.007,161.450 96.276 C 161.069 95.546,159.553 93.704,158.081 92.184 L 155.404 89.421 152.053 89.473 C 150.210 89.501,147.555 89.773,146.151 90.077 M208.051 89.756 C 207.611 90.047,207.629 90.549,208.151 92.659 C 209.085 96.430,209.566 101.998,209.574 109.138 L 209.581 115.482 236.806 115.326 L 264.031 115.170 264.620 117.166 C 265.127 118.884,269.233 132.147,272.560 142.814 C 273.124 144.625,273.452 146.242,273.287 146.407 C 273.122 146.572,256.751 146.829,236.907 146.978 C 217.062 147.128,200.568 147.398,200.254 147.577 C 199.939 147.757,198.872 148.985,197.881 150.307 C 190.936 159.569,179.589 167.979,169.062 171.666 C 167.305 172.281,164.521 173.267,162.874 173.856 C 153.909 177.063,142.771 177.972,122.754 177.130 L 120.758 177.046 120.359 219.760 C 120.140 243.253,120.085 262.636,120.238 262.833 C 120.391 263.030,121.738 263.427,123.232 263.717 C 136.688 266.320,149.008 259.064,151.435 247.106 C 151.953 244.554,151.985 244.509,153.339 244.392 C 156.895 244.086,267.346 243.300,267.920 243.577 C 268.449 243.832,268.605 244.712,268.738 248.194 C 268.963 254.101,270.403 256.578,275.418 259.682 C 286.927 266.808,313.209 263.113,316.368 253.926 C 317.856 249.597,317.977 231.467,316.581 221.956 C 316.371 220.529,315.919 216.487,315.576 212.974 C 315.233 209.461,314.510 203.623,313.969 200.000 C 313.428 196.377,312.798 191.347,312.568 188.822 C 312.107 183.766,310.984 178.476,309.803 175.806 L 309.038 174.076 310.811 171.792 C 311.787 170.536,312.773 168.779,313.002 167.888 C 314.040 163.848,314.079 163.790,316.085 163.293 C 323.757 161.388,328.198 156.359,329.031 148.632 C 330.039 139.274,325.723 136.061,315.454 138.523 C 306.694 140.623,304.177 144.210,303.689 155.289 L 303.593 157.485 302.264 154.837 C 301.370 153.057,300.675 150.768,300.142 147.851 C 297.693 134.456,295.511 127.640,290.070 116.397 C 280.115 95.829,274.306 90.868,259.210 90.047 C 251.854 89.646,208.589 89.401,208.051 89.756 M290.314 181.757 C 296.207 190.633,295.824 198.328,289.163 204.907 C 285.648 208.378,284.529 208.709,273.240 209.622 C 257.641 210.883,252.637 209.920,257.615 206.616 C 258.784 205.840,261.780 203.360,264.272 201.106 C 266.765 198.851,270.704 195.350,273.025 193.327 C 275.346 191.303,279.671 187.404,282.635 184.662 C 288.887 178.879,288.500 179.025,290.314 181.757 M135.103 181.831 C 140.179 183.917,147.412 189.964,152.238 196.154 C 155.136 199.871,162.076 209.883,162.076 210.346 C 162.076 211.099,146.726 211.413,141.845 210.760 C 131.223 209.339,126.443 205.031,124.141 194.800 C 121.791 184.362,126.811 178.422,135.103 181.831 M246.307 189.444 C 246.307 190.005,246.106 191.263,245.861 192.238 L 245.414 194.012 222.807 194.061 C 210.373 194.088,193.822 194.224,186.028 194.365 C 169.984 194.654,170.858 194.822,170.859 191.441 L 170.860 189.421 183.334 189.271 C 208.520 188.968,239.810 188.560,243.014 188.492 C 246.298 188.423,246.307 188.426,246.307 189.444 M244.711 205.141 C 244.711 205.553,244.450 206.515,244.131 207.278 L 243.551 208.666 209.372 208.960 C 171.363 209.287,174.245 209.477,173.357 206.585 L 172.929 205.190 192.952 205.136 C 203.964 205.107,217.914 204.961,223.952 204.812 C 244.912 204.294,244.711 204.291,244.711 205.141 M250.207 225.948 C 250.283 227.501,250.108 228.479,249.608 229.287 L 248.902 230.430 241.916 230.540 C 196.616 231.250,170.207 231.351,169.364 230.818 C 168.152 230.051,167.425 227.522,167.897 225.718 L 168.263 224.316 194.006 224.107 C 208.164 223.992,219.809 223.837,219.882 223.764 C 219.956 223.690,226.785 223.658,235.058 223.691 L 250.100 223.752 250.207 225.948 " stroke="none" fill="#0d1513" fill-rule="evenodd"></path><path id="path1" d="M136.407 47.358 C 136.315 47.451,121.618 47.624,103.748 47.743 C 85.878 47.862,71.017 48.037,70.724 48.132 C 70.279 48.276,70.239 63.760,70.484 140.831 L 70.778 233.357 59.625 245.521 C 24.102 284.267,21.543 287.497,25.349 288.771 C 27.255 289.410,82.114 289.527,159.880 289.058 C 331.909 288.022,367.947 287.767,369.222 287.573 C 372.680 287.047,373.903 283.506,371.579 280.752 C 368.338 276.913,318.289 225.948,317.759 225.948 C 317.276 225.948,317.789 233.569,318.345 234.663 C 318.606 235.176,328.732 245.628,340.847 257.891 C 352.962 270.154,362.874 280.371,362.874 280.595 C 362.874 281.571,288.967 282.298,287.733 281.334 C 287.384 281.061,286.340 279.581,285.414 278.044 C 283.372 274.657,280.073 270.434,279.208 270.102 C 277.420 269.416,154.027 270.247,144.112 271.012 C 137.624 271.513,136.772 272.181,132.970 279.755 C 132.243 281.204,131.336 282.417,130.825 282.626 C 130.337 282.826,109.883 283.182,85.230 283.421 C 60.639 283.659,38.772 283.965,36.637 284.102 C 30.937 284.467,30.974 284.275,37.991 277.125 C 41.158 273.898,49.657 264.970,56.879 257.285 C 64.101 249.601,70.153 243.254,70.328 243.182 C 70.503 243.110,70.694 248.140,70.752 254.360 L 70.858 265.669 95.066 265.772 L 119.273 265.874 119.489 264.973 C 119.608 264.477,119.725 257.764,119.749 250.055 C 119.773 242.346,119.960 227.076,120.164 216.123 C 120.368 205.169,120.541 191.737,120.547 186.272 L 120.559 176.337 124.052 176.692 C 151.405 179.466,175.683 172.280,191.299 156.788 C 202.541 145.636,206.623 136.966,208.545 120.160 C 209.600 110.938,209.697 108.506,209.211 103.376 C 207.332 83.516,203.453 73.768,193.426 63.712 C 184.353 54.611,176.954 50.754,163.673 48.199 C 159.791 47.453,137.016 46.750,136.407 47.358 M145.509 84.393 C 159.785 88.102,167.909 101.746,165.555 118.058 C 164.517 125.249,161.762 130.622,156.776 135.179 C 153.050 138.584,154.034 138.422,135.030 138.747 L 118.164 139.036 118.164 111.223 L 118.164 83.411 130.439 83.539 C 140.724 83.647,143.168 83.785,145.509 84.393 M68.929 298.470 C 68.782 298.616,68.663 301.401,68.663 304.657 L 68.663 310.579 82.635 310.579 L 96.607 310.579 96.607 339.721 L 96.607 368.862 106.387 368.862 L 116.168 368.862 116.168 339.721 L 116.168 310.579 129.940 310.579 L 143.713 310.579 143.713 304.391 L 143.713 298.204 106.454 298.204 C 85.961 298.204,69.075 298.323,68.929 298.470 M156.523 299.102 C 156.334 299.596,155.418 301.617,154.489 303.593 C 153.559 305.569,151.222 310.599,149.295 314.770 C 147.368 318.942,144.852 324.331,143.703 326.747 C 142.555 329.162,140.044 334.551,138.123 338.723 C 136.203 342.894,133.773 348.104,132.724 350.299 C 131.676 352.495,129.324 357.525,127.498 361.477 L 124.178 368.663 134.025 368.770 C 143.088 368.868,143.905 368.820,144.279 368.171 C 144.793 367.279,149.688 356.128,149.978 355.190 C 150.178 354.538,151.363 354.491,167.462 354.491 L 184.730 354.491 187.331 360.778 C 188.762 364.237,190.054 367.470,190.202 367.964 L 190.473 368.862 200.825 368.862 C 206.519 368.862,211.178 368.762,211.178 368.639 C 211.178 368.415,203.781 352.253,200.592 345.509 C 198.557 341.204,198.452 340.977,189.119 320.758 C 185.065 311.976,181.061 303.308,180.220 301.497 L 178.693 298.204 167.780 298.204 L 156.866 298.204 156.523 299.102 M218.029 298.573 C 218.103 298.783,220.851 302.244,224.135 306.264 C 242.281 328.478,245.509 332.506,245.509 332.937 C 245.509 333.436,243.824 335.531,229.941 352.295 C 225.214 358.004,220.215 364.067,218.831 365.768 L 216.316 368.862 227.419 368.858 L 238.523 368.855 242.515 363.625 C 244.711 360.749,247.992 356.485,249.808 354.148 C 251.623 351.812,253.977 348.783,255.039 347.417 L 256.969 344.934 257.752 345.820 C 258.183 346.308,259.775 348.413,261.290 350.499 C 264.650 355.124,268.405 360.256,272.023 365.170 L 274.743 368.862 286.335 368.862 C 297.336 368.862,297.898 368.827,297.334 368.164 C 296.648 367.356,288.307 357.208,284.946 353.091 C 283.692 351.556,279.426 346.355,275.465 341.533 C 271.504 336.712,268.263 332.566,268.263 332.321 C 268.263 332.076,271.272 328.282,274.950 323.891 C 286.368 310.258,295.599 299.031,295.742 298.602 C 295.835 298.325,292.317 298.225,284.969 298.297 L 274.058 298.403 271.061 302.441 C 269.413 304.662,265.667 309.737,262.738 313.719 C 259.809 317.700,257.264 320.958,257.084 320.958 C 256.797 320.958,254.158 317.497,252.224 314.583 C 251.855 314.027,249.070 310.160,246.034 305.988 L 240.514 298.403 229.204 298.297 C 222.134 298.231,217.944 298.334,218.029 298.573 M308.184 333.533 L 308.184 368.862 317.764 368.862 L 327.345 368.862 327.345 333.533 L 327.345 298.204 317.764 298.204 L 308.184 298.204 308.184 333.533 M171.456 323.154 C 178.233 339.590,179.155 341.927,178.979 342.216 C 178.768 342.560,156.337 342.631,155.995 342.289 C 155.702 341.996,159.453 332.826,164.637 321.158 C 165.125 320.060,165.961 318.139,166.495 316.889 C 167.732 313.992,167.620 313.851,171.456 323.154 " stroke="none" fill="#fbfbf9" fill-rule="evenodd"></path><path id="path2" d="M342.515 13.445 C 339.033 13.537,273.989 14.065,177.645 14.783 C 147.675 15.007,105.606 15.356,84.158 15.559 L 45.163 15.930 42.786 17.130 C 30.902 23.129,19.649 41.912,15.797 62.180 C 13.199 75.845,13.455 62.098,12.358 247.505 C 11.822 338.032,11.733 331.944,13.726 341.317 C 18.370 363.156,30.620 382.188,42.006 385.254 C 43.763 385.727,279.142 385.384,324.750 384.842 C 353.397 384.502,351.938 384.669,360.046 380.808 C 372.688 374.789,382.331 364.459,384.988 354.092 C 385.728 351.204,386.702 224.048,386.921 101.597 L 387.026 43.313 385.734 40.109 C 381.521 29.660,371.832 19.877,361.670 15.809 C 356.565 13.765,351.952 13.196,342.515 13.445 M167.216 48.421 C 176.752 50.934,180.930 52.843,186.599 57.274 L 190.470 60.300 217.036 60.268 C 231.648 60.251,243.676 60.309,243.765 60.399 C 244.699 61.332,248.651 84.787,248.039 85.761 C 247.392 86.791,242.178 87.039,223.509 86.926 L 206.899 86.826 207.242 88.021 C 207.431 88.679,207.585 89.217,207.586 89.219 C 207.586 89.220,219.128 89.279,233.234 89.349 C 269.125 89.527,271.683 89.987,278.971 97.579 C 288.127 107.116,296.691 126.950,300.609 147.693 C 301.555 152.705,304.249 159.209,303.521 154.727 C 302.211 146.650,306.751 140.115,315.055 138.124 C 325.288 135.671,329.565 138.202,329.514 146.680 C 329.464 155.145,325.590 160.598,317.779 163.202 L 314.375 164.337 313.938 166.300 C 313.403 168.701,312.442 170.625,310.887 172.410 C 309.601 173.886,309.603 173.986,310.971 177.782 C 312.024 180.705,312.427 182.824,312.970 188.286 C 313.207 190.667,313.921 196.297,314.558 200.798 C 315.194 205.299,316.028 212.305,316.410 216.367 L 317.105 223.752 331.717 238.523 C 375.186 282.464,374.930 282.176,373.385 285.326 C 371.915 288.323,370.936 288.621,362.516 288.634 C 358.432 288.640,318.174 288.909,273.054 289.231 C 150.207 290.110,32.106 290.423,27.796 289.882 C 18.999 288.779,19.637 287.858,58.634 245.326 L 70.362 232.535 70.211 140.120 L 70.060 47.705 88.224 47.501 C 98.214 47.389,119.142 47.305,134.731 47.314 L 163.074 47.330 167.216 48.421 M118.164 111.204 L 118.164 138.576 119.212 138.450 C 120.137 138.338,120.340 138.020,120.945 135.729 C 125.485 118.551,131.835 102.392,136.555 96.008 C 140.276 90.975,144.618 89.022,152.084 89.022 L 154.602 89.022 153.050 87.967 C 147.928 84.488,144.250 83.832,129.867 83.832 L 118.164 83.832 118.164 111.204 M151.546 116.267 C 151.234 116.761,149.953 119.770,148.700 122.954 C 147.446 126.138,146.187 129.281,145.900 129.940 C 144.287 133.650,142.515 137.995,142.515 138.240 C 142.515 139.343,151.962 138.478,153.742 137.212 C 157.335 134.658,161.677 129.965,161.677 128.635 C 161.677 128.396,161.934 127.943,162.249 127.628 C 163.069 126.808,165.203 120.267,165.514 117.617 L 165.779 115.369 158.946 115.369 C 152.296 115.369,152.099 115.393,151.546 116.267 M209.426 116.267 C 209.333 116.761,209.067 118.693,208.836 120.559 C 208.327 124.673,206.551 133.626,206.026 134.731 C 205.817 135.170,205.339 136.517,204.963 137.725 C 204.212 140.138,202.333 144.091,201.116 145.814 L 200.337 146.917 217.434 146.714 C 226.837 146.602,243.141 146.417,253.665 146.303 C 264.188 146.190,272.864 146.032,272.943 145.953 C 273.022 145.873,272.723 144.753,272.278 143.463 C 270.815 139.221,265.098 120.815,264.390 118.064 L 263.695 115.369 236.646 115.369 L 209.596 115.369 209.426 116.267 M282.203 185.559 C 279.001 188.584,274.510 192.664,272.223 194.625 C 269.935 196.587,265.998 200.055,263.473 202.332 C 260.948 204.609,258.186 206.828,257.334 207.262 C 252.143 209.912,264.902 210.535,281.079 208.422 C 293.270 206.829,297.814 192.241,289.515 181.337 C 288.227 179.644,288.838 179.291,282.203 185.559 M127.461 182.022 C 124.690 183.712,123.605 188.328,124.550 194.406 C 125.898 203.073,131.491 208.789,139.812 210.006 C 142.909 210.458,161.277 210.373,161.277 209.906 C 161.277 209.393,154.814 200.076,151.498 195.808 C 143.791 185.891,132.106 179.189,127.461 182.022 M216.567 189.251 C 201.417 189.411,185.026 189.605,180.141 189.681 L 171.260 189.820 171.264 191.218 C 171.273 194.227,171.269 194.224,175.570 194.182 C 177.699 194.162,194.216 193.996,212.275 193.814 L 245.108 193.482 245.506 192.050 C 246.170 189.660,246.037 188.812,245.010 188.891 C 244.516 188.929,231.717 189.091,216.567 189.251 M224.351 205.209 C 218.972 205.358,205.345 205.504,194.068 205.534 L 173.566 205.589 173.837 206.687 C 173.986 207.290,174.230 207.908,174.380 208.058 C 174.795 208.478,186.015 208.592,216.049 208.483 L 243.475 208.383 243.891 206.886 C 244.120 206.063,244.308 205.254,244.309 205.090 C 244.312 204.764,239.453 204.793,224.351 205.209 M242.296 224.095 C 242.197 224.188,225.590 224.370,205.392 224.499 L 168.669 224.732 168.317 225.787 C 167.845 227.203,168.648 229.790,169.777 230.490 C 170.507 230.943,173.230 230.982,185.629 230.717 C 193.862 230.541,211.453 230.312,224.718 230.208 L 248.838 230.020 249.390 228.966 C 249.702 228.370,249.890 227.094,249.822 226.032 L 249.701 224.152 246.088 224.038 C 244.102 223.975,242.395 224.001,242.296 224.095 M318.165 241.517 C 318.124 254.403,316.852 257.248,309.769 260.295 C 296.182 266.139,279.904 265.076,272.044 257.831 C 269.326 255.325,268.504 253.252,268.266 248.303 L 268.064 244.112 230.339 244.256 C 209.591 244.336,183.551 244.516,172.473 244.656 L 152.331 244.910 151.814 247.505 C 149.406 259.588,136.406 267.013,122.691 264.139 L 120.232 263.623 119.882 264.846 L 119.531 266.068 95.439 266.171 C 78.148 266.245,71.195 266.148,70.810 265.828 C 70.390 265.480,70.249 263.110,70.166 254.994 L 70.060 244.606 67.036 247.752 C 65.372 249.482,61.076 254.042,57.488 257.884 C 53.900 261.727,47.132 268.851,42.448 273.716 C 32.618 283.926,32.823 283.553,37.226 283.243 C 41.064 282.972,99.922 282.237,117.788 282.236 C 131.541 282.235,130.555 282.462,132.532 278.842 C 137.335 270.045,136.597 270.406,150.897 269.860 C 164.932 269.325,275.901 268.624,278.237 269.057 C 280.365 269.451,281.399 270.531,285.311 276.447 C 286.763 278.643,288.027 280.529,288.120 280.639 C 288.367 280.929,354.935 280.577,358.483 280.266 L 361.477 280.005 345.877 264.254 C 337.296 255.591,327.555 245.719,324.229 242.315 L 318.182 236.128 318.165 241.517 M143.912 304.391 L 143.912 310.778 130.040 310.883 L 116.168 310.988 116.168 340.132 L 116.168 369.275 106.287 369.169 L 96.407 369.062 96.305 340.025 L 96.202 310.988 82.333 310.883 L 68.463 310.778 68.348 305.190 C 68.285 302.116,68.334 299.196,68.456 298.701 L 68.679 297.800 106.296 297.902 L 143.912 298.004 143.912 304.391 M179.111 298.541 C 179.364 298.947,181.489 303.465,183.832 308.583 C 186.176 313.700,188.251 318.174,188.443 318.524 C 188.634 318.875,189.533 320.778,190.440 322.754 C 191.346 324.731,192.418 327.066,192.821 327.944 C 193.224 328.822,194.394 331.337,195.422 333.533 C 196.449 335.729,199.314 341.926,201.789 347.305 C 204.264 352.685,206.919 358.433,207.689 360.080 C 211.067 367.304,211.577 368.453,211.577 368.846 C 211.577 369.123,208.084 369.261,201.053 369.261 L 190.530 369.261 189.319 366.367 C 188.654 364.775,187.262 361.450,186.228 358.978 L 184.346 354.482 167.597 354.587 L 150.848 354.691 150.283 355.689 C 149.972 356.238,148.984 358.393,148.086 360.479 C 147.189 362.565,145.926 365.394,145.279 366.766 L 144.104 369.261 133.928 369.261 C 128.018 369.261,123.752 369.108,123.752 368.895 C 123.752 368.694,124.183 367.661,124.709 366.600 C 125.236 365.539,126.290 363.323,127.052 361.677 C 128.844 357.805,130.670 353.889,132.542 349.900 C 133.367 348.144,134.625 345.449,135.338 343.912 C 136.050 342.375,137.500 339.288,138.559 337.052 C 139.619 334.815,141.381 331.026,142.475 328.631 C 143.569 326.236,145.348 322.407,146.428 320.122 C 147.508 317.837,148.846 314.980,149.402 313.772 C 149.958 312.565,151.142 310.026,152.035 308.130 C 152.927 306.234,154.372 303.136,155.246 301.244 L 156.835 297.804 167.742 297.804 C 177.915 297.804,178.681 297.854,179.111 298.541 M244.629 303.493 C 252.801 314.991,256.717 320.362,257.003 320.461 C 257.163 320.516,258.820 318.488,260.683 315.953 C 262.547 313.419,265.633 309.241,267.542 306.670 C 269.450 304.099,271.605 301.188,272.330 300.200 C 273.054 299.212,273.828 298.271,274.049 298.110 C 274.540 297.752,295.972 297.702,296.328 298.058 C 296.585 298.315,293.213 302.562,285.246 312.016 C 282.822 314.892,280.264 317.946,279.562 318.802 C 278.860 319.659,276.053 323.054,273.326 326.347 L 268.366 332.335 269.494 333.733 C 271.341 336.022,276.637 342.486,287.625 355.862 C 293.333 362.812,298.064 368.670,298.137 368.880 C 298.472 369.841,274.855 369.336,273.996 368.363 C 273.560 367.869,271.517 365.130,269.456 362.275 C 264.663 355.636,260.584 350.060,258.586 347.420 L 257.012 345.339 254.953 348.038 C 253.821 349.523,252.086 351.780,251.098 353.053 C 250.110 354.327,247.864 357.221,246.108 359.485 C 244.351 361.749,241.930 364.875,240.727 366.431 L 238.540 369.261 227.221 369.261 C 220.124 369.261,215.951 369.118,216.035 368.876 C 216.108 368.665,217.685 366.644,219.541 364.385 C 224.892 357.871,235.666 344.821,240.794 338.643 L 245.499 332.975 243.408 330.400 C 242.258 328.984,237.455 323.101,232.735 317.326 C 220.067 301.828,217.565 298.677,217.565 298.218 C 217.565 297.942,221.392 297.804,229.076 297.804 L 240.586 297.804 244.629 303.493 M327.647 333.633 L 327.749 369.261 317.966 369.261 L 308.184 369.261 308.184 333.526 L 308.184 297.790 317.864 297.897 L 327.545 298.004 327.647 333.633 M165.676 319.461 C 164.719 321.712,163.321 324.990,162.569 326.747 C 161.817 328.503,160.787 330.928,160.279 332.136 C 159.772 333.343,158.698 335.858,157.893 337.725 C 157.088 339.591,156.333 341.342,156.216 341.617 C 156.048 342.009,158.447 342.116,167.465 342.116 C 176.482 342.116,178.883 342.009,178.716 341.617 C 178.600 341.342,177.392 338.423,176.032 335.130 C 174.672 331.836,173.150 328.154,172.649 326.946 C 172.148 325.739,171.260 323.583,170.676 322.156 C 170.091 320.729,169.264 318.799,168.838 317.869 C 168.412 316.938,168.064 315.995,168.064 315.773 C 168.064 314.529,167.216 315.839,165.676 319.461 " stroke="none" fill="#fbcb04" fill-rule="evenodd"></path><path id="path3" d="M285.030 13.206 C 263.842 13.378,225.938 13.714,200.798 13.951 C 175.659 14.189,130.569 14.566,100.599 14.790 C 40.213 15.241,44.529 15.017,39.998 17.945 C 27.020 26.333,17.141 45.995,13.813 70.060 L 12.819 77.246 12.581 122.156 C 12.450 146.856,12.176 186.916,11.972 211.178 C 10.971 330.413,10.970 332.165,11.902 335.823 C 12.364 337.637,13.117 341.098,13.576 343.513 C 17.124 362.182,29.462 381.163,40.897 385.541 C 43.279 386.453,340.912 386.100,348.303 385.176 C 363.674 383.256,380.258 370.017,385.253 355.680 C 386.411 352.357,386.553 340.430,387.251 187.824 C 387.970 30.454,388.006 45.094,386.889 41.517 C 383.133 29.487,371.478 18.091,358.683 13.937 C 355.242 12.820,345.052 12.719,285.030 13.206 M355.882 14.029 C 367.558 16.080,380.660 27.526,385.734 40.109 L 387.026 43.313 386.921 101.597 C 386.702 224.048,385.728 351.204,384.988 354.092 C 382.331 364.459,372.688 374.789,360.046 380.808 C 351.938 384.669,353.397 384.502,324.750 384.842 C 279.142 385.384,43.763 385.727,42.006 385.254 C 30.620 382.188,18.370 363.156,13.726 341.317 C 11.733 331.944,11.822 338.032,12.358 247.505 C 13.455 62.098,13.199 75.845,15.797 62.180 C 19.649 41.912,30.902 23.129,42.786 17.130 L 45.163 15.930 84.158 15.559 C 105.606 15.356,147.675 15.007,177.645 14.783 C 273.989 14.065,339.033 13.537,342.515 13.445 C 347.582 13.311,353.193 13.556,355.882 14.029 M243.513 60.653 C 243.513 60.859,243.872 62.521,244.310 64.346 C 244.749 66.171,245.660 70.986,246.335 75.046 C 247.485 81.961,247.905 83.821,247.904 82.003 C 247.902 79.672,244.131 60.279,243.679 60.279 C 243.588 60.279,243.513 60.448,243.513 60.653 M204.221 79.441 C 204.368 79.990,204.654 80.709,204.858 81.038 C 205.115 81.454,205.146 81.332,204.961 80.639 C 204.814 80.090,204.527 79.371,204.324 79.042 C 204.067 78.626,204.035 78.748,204.221 79.441 M247.968 84.083 C 247.845 86.480,248.408 86.414,226.883 86.569 L 207.183 86.712 206.566 85.372 C 205.953 84.042,205.950 84.041,206.200 85.226 C 206.592 87.090,206.295 87.066,227.231 86.943 C 249.330 86.813,248.530 86.918,248.197 84.188 L 248.032 82.834 247.968 84.083 M146.289 89.577 C 140.958 90.630,137.664 93.446,133.810 100.243 C 132.390 102.748,125.892 118.325,125.548 120.049 C 125.326 121.162,125.700 120.300,129.920 109.980 C 136.687 93.429,139.939 90.332,151.497 89.431 L 155.090 89.151 151.896 89.126 C 150.140 89.112,147.617 89.315,146.289 89.577 M213.273 89.320 C 215.853 89.390,220.075 89.390,222.655 89.320 C 225.235 89.251,223.124 89.194,217.964 89.194 C 212.804 89.194,210.694 89.251,213.273 89.320 M156.612 90.668 C 157.449 91.409,158.706 92.654,159.406 93.434 C 160.106 94.214,160.415 94.483,160.093 94.033 C 159.024 92.538,156.698 90.163,155.888 89.738 C 155.449 89.507,155.775 89.926,156.612 90.668 M245.110 89.829 C 275.423 90.253,278.216 91.904,290.070 116.397 C 295.511 127.640,297.693 134.456,300.142 147.851 C 300.880 151.892,303.106 157.706,303.691 157.121 C 303.812 157.000,303.362 155.864,302.690 154.598 C 301.867 153.047,301.187 150.797,300.606 147.705 C 297.954 133.590,295.909 127.180,290.544 116.169 C 278.519 91.491,274.697 89.341,243.124 89.501 L 227.345 89.581 245.110 89.829 M208.660 97.206 C 208.781 98.962,208.948 100.474,209.031 100.566 C 209.300 100.862,209.132 97.654,208.781 95.808 C 208.525 94.458,208.495 94.805,208.660 97.206 M163.913 101.534 C 164.269 102.580,164.631 103.366,164.717 103.280 C 164.926 103.072,164.057 100.503,163.614 100.015 C 163.422 99.804,163.556 100.488,163.913 101.534 M165.792 112.774 C 165.795 114.092,165.869 114.583,165.958 113.865 C 166.047 113.148,166.045 112.070,165.954 111.470 C 165.863 110.870,165.790 111.457,165.792 112.774 M245.015 115.252 C 245.511 115.348,246.230 115.344,246.611 115.244 C 246.993 115.144,246.587 115.066,245.709 115.071 C 244.830 115.075,244.518 115.157,245.015 115.252 M257.299 115.263 L 263.700 115.388 264.392 118.073 C 265.099 120.817,270.818 139.229,272.278 143.463 C 272.723 144.753,273.009 145.886,272.914 145.982 C 272.818 146.078,256.598 146.311,236.869 146.501 C 197.029 146.884,200.147 146.650,198.165 149.407 C 194.193 154.937,185.723 162.594,179.184 166.567 C 174.952 169.138,173.820 170.019,176.567 168.603 C 182.878 165.350,193.326 156.382,197.881 150.307 C 198.872 148.985,199.939 147.757,200.254 147.577 C 200.568 147.398,217.062 147.128,236.907 146.978 C 256.751 146.829,273.122 146.572,273.287 146.407 C 273.452 146.242,273.124 144.625,272.560 142.814 C 269.183 131.986,265.127 118.881,264.621 117.166 L 264.033 115.170 257.466 115.154 L 250.898 115.138 257.299 115.263 M150.548 117.428 C 149.399 120.194,149.687 120.284,150.949 117.552 C 151.504 116.351,151.833 115.369,151.681 115.369 C 151.528 115.369,151.019 116.296,150.548 117.428 M148.335 122.786 C 147.749 124.249,147.347 125.524,147.441 125.618 C 147.535 125.712,148.079 124.579,148.650 123.101 C 149.221 121.623,149.624 120.349,149.544 120.270 C 149.465 120.190,148.921 121.323,148.335 122.786 M123.379 127.208 C 120.731 136.202,120.209 138.295,120.529 138.635 C 120.690 138.806,123.233 138.890,126.180 138.822 L 131.537 138.697 126.085 138.610 C 119.811 138.510,120.301 139.090,121.959 133.733 C 124.250 126.330,125.408 122.133,125.272 121.724 C 125.191 121.481,124.339 123.949,123.379 127.208 M146.157 128.206 C 145.687 129.339,145.383 130.346,145.482 130.445 C 145.658 130.621,146.538 128.736,147.085 127.011 C 147.600 125.390,147.014 126.144,146.157 128.206 M143.557 134.575 C 142.971 135.928,142.560 137.105,142.646 137.190 C 142.731 137.276,143.281 136.239,143.868 134.886 C 144.455 133.533,144.865 132.356,144.779 132.271 C 144.694 132.186,144.144 133.223,143.557 134.575 M314.866 138.145 C 306.876 140.109,302.090 146.991,303.497 154.491 C 303.616 155.130,303.708 154.842,303.752 153.693 C 304.105 144.398,307.090 140.528,315.454 138.523 C 325.723 136.061,330.039 139.274,329.031 148.632 C 328.198 156.359,323.757 161.388,316.085 163.293 C 314.079 163.790,314.040 163.848,313.002 167.888 C 312.773 168.779,311.787 170.536,310.811 171.792 L 309.038 174.076 309.803 175.806 C 310.984 178.476,312.107 183.766,312.568 188.822 C 312.798 191.347,313.428 196.377,313.969 200.000 C 314.510 203.623,315.233 209.461,315.576 212.974 C 315.919 216.487,316.369 220.529,316.575 221.956 C 316.781 223.383,316.981 225.359,317.018 226.347 C 317.066 227.615,317.136 227.810,317.255 227.010 C 317.482 225.495,316.029 211.396,314.574 200.998 C 313.929 196.387,313.208 190.667,312.971 188.286 C 312.427 182.822,312.024 180.704,310.971 177.782 C 309.603 173.986,309.601 173.886,310.887 172.410 C 312.442 170.625,313.403 168.701,313.938 166.300 L 314.375 164.337 317.779 163.202 C 325.590 160.598,329.464 155.145,329.514 146.680 C 329.565 138.200,325.137 135.620,314.866 138.145 M170.259 170.719 C 168.283 171.468,165.892 172.363,164.946 172.709 C 163.999 173.055,163.289 173.403,163.368 173.481 C 163.559 173.672,172.223 170.612,173.583 169.873 C 175.265 168.960,174.152 169.243,170.259 170.719 M155.888 175.250 C 154.132 175.641,152.964 175.981,153.293 176.004 C 154.068 176.060,160.168 174.895,160.420 174.643 C 160.757 174.306,159.172 174.518,155.888 175.250 M120.559 176.689 C 120.559 176.885,121.412 177.059,122.455 177.075 C 123.498 177.091,126.058 177.214,128.144 177.349 C 131.240 177.549,131.423 177.534,129.142 177.267 C 122.349 176.472,120.559 176.351,120.559 176.689 M146.307 176.711 C 145.868 176.797,143.263 177.031,140.519 177.231 L 135.529 177.596 140.918 177.383 C 146.373 177.168,152.155 176.553,148.703 176.555 C 147.824 176.555,146.747 176.626,146.307 176.711 M282.635 184.662 C 279.671 187.404,275.346 191.303,273.025 193.327 C 270.704 195.350,266.765 198.851,264.272 201.106 C 261.780 203.360,258.784 205.840,257.615 206.616 C 256.446 207.392,255.489 208.161,255.489 208.325 C 255.489 208.820,256.410 209.581,257.010 209.581 C 257.367 209.581,257.234 209.306,256.649 208.832 L 255.725 208.084 257.303 207.278 C 258.172 206.835,260.948 204.609,263.473 202.332 C 265.998 200.055,269.950 196.580,272.255 194.610 C 275.985 191.424,278.116 189.467,286.155 181.852 L 288.278 179.840 289.266 181.038 C 297.940 191.544,293.372 206.819,281.079 208.421 C 275.192 209.188,263.875 209.956,260.878 209.793 L 257.685 209.619 260.581 210.015 C 265.379 210.671,282.485 209.146,285.186 207.821 C 294.966 203.023,297.130 192.023,290.314 181.757 C 288.500 179.025,288.887 178.879,282.635 184.662 M126.572 182.260 C 123.699 184.856,122.867 189.144,124.141 194.800 C 126.443 205.031,131.223 209.339,141.845 210.760 C 146.699 211.409,162.076 211.100,162.076 210.354 C 162.076 209.903,154.662 199.164,153.257 197.579 C 151.680 195.800,152.212 196.812,154.319 199.601 C 156.522 202.515,161.277 209.558,161.277 209.906 C 161.277 210.373,142.909 210.458,139.812 210.006 C 131.491 208.789,125.898 203.073,124.550 194.406 C 121.850 177.048,133.901 176.844,149.841 193.978 C 150.906 195.123,151.875 195.963,151.993 195.844 C 152.393 195.445,143.140 186.644,140.292 184.715 C 134.099 180.521,129.424 179.684,126.572 182.260 M222.156 188.832 L 204.591 189.054 225.250 189.038 C 248.569 189.020,246.438 188.696,245.489 192.113 L 245.074 193.606 222.238 193.713 L 199.401 193.819 222.408 193.916 L 245.414 194.012 245.861 192.238 C 246.810 188.471,246.763 188.410,243.014 188.517 C 241.203 188.568,231.816 188.710,222.156 188.832 M170.858 191.341 C 170.858 194.332,171.383 194.911,173.653 194.420 L 175.449 194.032 173.596 194.208 C 171.946 194.365,171.717 194.287,171.506 193.499 C 171.008 191.645,171.229 189.687,171.956 189.497 C 172.482 189.359,172.432 189.303,171.756 189.268 C 170.932 189.225,170.858 189.395,170.858 191.341 M184.907 189.520 C 187.693 189.588,192.364 189.588,195.286 189.520 C 198.208 189.452,195.928 189.396,190.220 189.395 C 184.511 189.395,182.120 189.451,184.907 189.520 M174.351 189.913 C 175.284 189.997,176.811 189.997,177.745 189.913 C 178.678 189.829,177.914 189.760,176.048 189.760 C 174.182 189.760,173.418 189.829,174.351 189.913 M183.533 194.310 C 186.003 194.380,190.045 194.380,192.515 194.310 C 194.985 194.240,192.964 194.183,188.024 194.183 C 183.084 194.183,181.063 194.240,183.533 194.310 M239.450 204.690 L 244.369 204.815 244.117 206.100 C 243.928 207.058,243.970 207.233,244.281 206.786 C 245.726 204.713,245.064 204.385,239.621 204.478 L 234.531 204.564 239.450 204.690 M194.350 205.090 L 172.931 205.197 173.358 206.589 C 174.247 209.483,171.350 209.295,209.422 208.920 C 239.313 208.626,243.667 208.507,243.810 207.984 C 243.923 207.567,243.870 207.529,243.635 207.860 C 243.212 208.452,175.044 208.742,174.469 208.153 C 174.271 207.950,173.986 207.290,173.837 206.687 L 173.566 205.589 194.068 205.534 C 205.345 205.504,218.972 205.358,224.351 205.209 L 234.132 204.940 224.950 204.961 C 219.900 204.973,206.130 205.031,194.350 205.090 M120.320 213.573 C 120.320 216.976,120.382 218.368,120.456 216.667 C 120.531 214.965,120.531 212.181,120.456 210.479 C 120.382 208.777,120.320 210.170,120.320 213.573 M219.882 223.764 C 219.809 223.837,208.164 223.992,194.006 224.107 L 168.263 224.316 167.897 225.718 C 167.425 227.522,168.152 230.051,169.364 230.818 C 170.207 231.351,196.616 231.250,241.916 230.540 L 248.902 230.430 249.608 229.287 C 250.108 228.479,250.283 227.501,250.207 225.948 L 250.100 223.752 235.058 223.691 C 226.785 223.658,219.956 223.690,219.882 223.764 M249.822 226.032 C 249.890 227.094,249.702 228.370,249.390 228.966 L 248.838 230.020 224.718 230.208 C 211.453 230.312,193.862 230.541,185.629 230.717 C 173.230 230.982,170.507 230.943,169.777 230.490 C 168.648 229.790,167.845 227.203,168.317 225.787 L 168.669 224.732 205.392 224.499 C 225.590 224.370,242.197 224.188,242.296 224.095 C 242.395 224.001,244.102 223.975,246.088 224.038 L 249.701 224.152 249.822 226.032 M317.619 237.126 C 318.023 253.138,316.695 256.970,309.758 259.804 C 295.430 265.658,279.956 264.562,272.122 257.139 C 269.529 254.682,268.924 253.084,268.738 248.194 C 268.605 244.712,268.449 243.832,267.920 243.577 C 267.346 243.300,156.895 244.086,153.339 244.392 C 151.985 244.509,151.953 244.554,151.435 247.106 C 149.044 258.886,137.112 266.100,123.785 263.822 C 122.340 263.575,120.843 263.210,120.459 263.010 C 120.020 262.781,119.760 262.793,119.760 263.041 C 119.760 264.394,130.712 265.174,134.930 264.122 C 143.699 261.936,150.217 255.521,151.814 247.505 L 152.331 244.910 172.473 244.656 C 183.551 244.516,209.591 244.336,230.339 244.256 L 268.064 244.112 268.266 248.303 C 268.653 256.352,272.963 260.710,282.929 263.130 C 295.597 266.205,314.458 261.293,316.750 254.322 C 318.103 250.210,318.532 241.182,317.758 233.134 C 317.525 230.710,317.485 231.851,317.619 237.126 M119.933 252.495 C 119.933 257.764,119.990 259.865,120.059 257.163 C 120.128 254.461,120.128 250.149,120.058 247.582 C 119.989 245.015,119.932 247.226,119.933 252.495 " stroke="none" fill="#a38304" fill-rule="evenodd"></path><path id="path4" d="M88.024 47.505 L 70.060 47.705 70.211 140.120 L 70.362 232.535 58.634 245.326 C 19.637 287.858,18.999 288.779,27.796 289.882 C 32.106 290.423,150.207 290.110,273.054 289.231 C 318.174 288.909,358.432 288.640,362.516 288.634 C 370.936 288.621,371.915 288.323,373.385 285.326 C 374.891 282.254,375.735 283.224,340.161 247.138 C 327.733 234.531,317.517 224.471,317.458 224.782 C 317.399 225.094,323.166 231.188,330.273 238.323 C 365.427 273.619,372.854 281.529,372.854 283.674 C 372.854 285.459,371.159 287.278,369.222 287.573 C 367.947 287.767,331.909 288.022,159.880 289.058 C 82.114 289.527,27.255 289.410,25.349 288.771 C 21.543 287.497,24.102 284.267,59.625 245.521 L 70.778 233.357 70.484 140.831 C 70.239 63.760,70.279 48.276,70.724 48.132 C 71.017 48.037,85.878 47.862,103.748 47.743 C 121.618 47.624,136.337 47.429,136.456 47.310 C 136.679 47.087,119.356 47.157,88.024 47.505 M139.820 47.381 C 140.205 47.481,140.833 47.481,141.218 47.381 C 141.602 47.281,141.287 47.198,140.519 47.198 C 139.750 47.198,139.436 47.281,139.820 47.381 M157.884 47.358 C 168.688 48.809,179.173 52.060,183.513 55.303 C 184.238 55.845,185.459 56.758,186.228 57.333 C 186.996 57.908,187.625 58.284,187.625 58.169 C 187.625 57.729,182.126 53.932,179.840 52.794 C 174.593 50.181,165.125 47.598,159.880 47.349 C 158.124 47.266,157.226 47.270,157.884 47.358 M188.024 58.807 C 188.024 58.876,188.608 59.353,189.321 59.868 L 190.619 60.805 189.651 59.744 C 188.824 58.837,188.024 58.377,188.024 58.807 M121.357 83.711 C 129.621 83.988,143.198 84.006,142.778 83.739 C 142.523 83.577,136.836 83.480,130.140 83.521 C 123.443 83.563,119.491 83.649,121.357 83.711 M147.705 85.393 C 148.034 85.579,148.752 85.851,149.301 85.996 L 150.299 86.261 149.301 85.660 C 148.752 85.329,148.034 85.057,147.705 85.056 C 147.172 85.054,147.172 85.092,147.705 85.393 M152.235 87.327 C 152.377 87.557,153.155 88.135,153.965 88.613 C 154.775 89.090,155.238 89.243,154.995 88.952 C 154.422 88.267,151.897 86.780,152.235 87.327 M209.274 104.192 C 209.274 104.960,209.356 105.274,209.457 104.890 C 209.557 104.506,209.557 103.877,209.457 103.493 C 209.356 103.109,209.274 103.423,209.274 104.192 M209.022 116.220 C 208.913 116.740,208.711 118.423,208.573 119.960 C 208.435 121.497,208.245 123.204,208.151 123.752 L 207.979 124.750 208.372 123.752 C 208.588 123.204,208.922 121.138,209.115 119.162 C 209.457 115.641,209.416 114.343,209.022 116.220 M164.300 122.583 C 163.956 123.740,163.752 124.764,163.846 124.858 C 163.941 124.952,164.299 124.082,164.642 122.926 C 164.986 121.769,165.190 120.745,165.096 120.651 C 165.002 120.557,164.644 121.427,164.300 122.583 M161.613 128.733 C 161.267 129.497,161.141 130.024,161.333 129.906 C 161.864 129.578,162.941 127.345,162.568 127.345 C 162.389 127.345,161.959 127.970,161.613 128.733 M206.568 131.190 C 206.426 131.820,206.154 132.949,205.963 133.699 C 205.772 134.452,205.770 134.898,205.960 134.697 C 206.344 134.288,207.215 130.435,206.977 130.197 C 206.894 130.114,206.709 130.561,206.568 131.190 M159.456 132.004 C 158.841 132.810,158.542 133.344,158.791 133.190 C 159.302 132.874,161.031 130.539,160.753 130.539 C 160.655 130.539,160.071 131.198,159.456 132.004 M156.464 135.041 C 155.684 135.748,154.516 136.739,153.870 137.243 C 153.223 137.747,153.503 137.631,154.491 136.986 C 156.057 135.964,158.530 133.713,158.054 133.743 C 157.960 133.749,157.245 134.333,156.464 135.041 M204.002 139.226 C 202.924 141.875,201.472 144.558,200.119 146.400 C 199.598 147.110,199.403 147.602,199.686 147.494 C 200.592 147.146,203.480 142.071,204.634 138.799 C 205.500 136.345,205.050 136.650,204.002 139.226 M118.663 138.798 C 119.047 138.899,119.676 138.899,120.060 138.798 C 120.444 138.698,120.130 138.616,119.361 138.616 C 118.593 138.616,118.278 138.698,118.663 138.798 M132.442 138.812 C 133.160 138.901,134.238 138.899,134.837 138.808 C 135.437 138.717,134.850 138.644,133.533 138.647 C 132.216 138.649,131.725 138.723,132.442 138.812 M132.635 177.531 C 133.239 177.623,134.227 177.623,134.830 177.531 C 135.434 177.440,134.940 177.365,133.733 177.365 C 132.525 177.365,132.031 177.440,132.635 177.531 M120.283 205.389 C 120.286 206.707,120.360 207.197,120.449 206.480 C 120.538 205.762,120.536 204.685,120.445 204.085 C 120.354 203.485,120.281 204.072,120.283 205.389 M119.927 235.729 C 119.927 239.900,119.986 241.553,120.058 239.400 C 120.130 237.248,120.130 233.835,120.058 231.816 C 119.985 229.796,119.926 231.557,119.927 235.729 M317.779 234.699 C 317.763 235.791,319.427 237.539,344.678 262.952 C 353.447 271.777,360.766 279.254,360.941 279.568 C 361.206 280.040,360.527 280.179,356.977 280.379 C 351.696 280.676,288.356 280.915,288.120 280.639 C 288.027 280.529,286.763 278.643,285.311 276.447 C 281.399 270.531,280.365 269.451,278.237 269.057 C 275.901 268.624,164.932 269.325,150.897 269.860 C 136.597 270.406,137.335 270.045,132.532 278.842 C 130.555 282.462,131.541 282.235,117.788 282.236 C 99.922 282.237,41.064 282.972,37.226 283.243 C 32.823 283.553,32.618 283.926,42.448 273.716 C 47.132 268.851,53.900 261.727,57.488 257.884 C 61.076 254.042,65.372 249.482,67.036 247.752 L 70.060 244.606 70.167 254.905 C 70.237 261.687,70.424 265.386,70.714 265.736 C 71.073 266.168,75.676 266.267,95.268 266.267 L 119.381 266.267 119.783 265.209 C 120.005 264.627,120.117 263.953,120.033 263.712 C 119.949 263.471,119.749 263.859,119.588 264.574 L 119.296 265.874 95.077 265.772 L 70.858 265.669 70.752 254.360 C 70.694 248.140,70.503 243.110,70.328 243.182 C 70.153 243.254,64.101 249.601,56.879 257.285 C 49.657 264.970,41.158 273.898,37.991 277.125 C 30.974 284.275,30.937 284.467,36.637 284.102 C 38.772 283.965,60.639 283.659,85.230 283.421 C 109.883 283.182,130.337 282.826,130.825 282.626 C 131.336 282.417,132.243 281.204,132.970 279.755 C 136.772 272.181,137.624 271.513,144.112 271.012 C 154.027 270.247,277.420 269.416,279.208 270.102 C 280.073 270.434,283.372 274.657,285.414 278.044 C 286.340 279.581,287.384 281.061,287.733 281.334 C 288.967 282.298,362.874 281.571,362.874 280.595 C 362.874 280.371,352.965 270.158,340.854 257.898 C 328.743 245.639,318.599 235.187,318.313 234.671 L 317.793 233.733 317.779 234.699 M68.456 298.701 C 68.334 299.196,68.285 302.116,68.348 305.190 L 68.463 310.778 82.333 310.883 L 96.202 310.988 96.305 340.025 L 96.407 369.062 106.288 369.073 L 116.168 369.083 106.387 368.966 L 96.607 368.848 96.607 339.714 L 96.607 310.579 82.624 310.579 L 68.642 310.579 68.752 304.491 L 68.862 298.403 106.287 298.301 L 143.713 298.199 143.713 304.384 L 143.713 310.568 129.940 310.681 L 116.167 310.794 130.040 310.786 L 143.912 310.778 143.912 304.391 L 143.912 298.004 106.296 297.902 L 68.679 297.800 68.456 298.701 M156.748 298.104 C 156.646 298.268,159.913 298.357,164.010 298.301 C 177.766 298.113,179.119 297.972,167.988 297.888 C 161.908 297.842,156.850 297.939,156.748 298.104 M217.565 298.341 C 217.565 298.637,217.969 299.220,218.463 299.639 C 219.360 300.398,219.361 300.398,218.663 299.569 C 218.278 299.113,217.964 298.619,217.964 298.472 C 217.964 298.324,222.996 298.204,229.147 298.204 L 240.330 298.204 242.957 301.796 C 244.402 303.772,245.673 305.389,245.780 305.389 C 245.888 305.389,245.363 304.536,244.613 303.493 C 243.863 302.450,242.650 300.744,241.917 299.701 L 240.583 297.804 229.074 297.804 C 219.699 297.804,217.565 297.904,217.565 298.341 M274.052 298.110 C 273.832 298.271,273.389 298.762,273.066 299.202 C 272.576 299.869,272.645 299.853,273.491 299.102 C 274.517 298.191,295.814 297.619,295.806 298.503 C 295.803 298.753,291.152 304.456,282.948 314.271 C 282.076 315.314,281.455 316.168,281.567 316.168 C 281.680 316.168,284.426 312.979,287.671 309.082 C 296.462 298.522,296.607 298.337,296.331 298.060 C 295.973 297.703,274.541 297.750,274.052 298.110 M317.764 298.100 L 327.345 298.218 327.345 333.533 L 327.345 368.848 317.665 368.962 L 307.984 369.077 317.866 369.169 L 327.749 369.261 327.647 333.633 L 327.545 298.004 317.864 297.993 L 308.183 297.982 317.764 298.100 M179.006 298.944 C 179.123 299.132,179.408 299.786,179.640 300.397 C 179.872 301.008,180.160 301.410,180.280 301.290 C 180.517 301.053,179.357 298.603,179.008 298.603 C 178.891 298.603,178.890 298.757,179.006 298.944 M155.974 299.484 C 155.857 299.768,155.473 300.674,155.121 301.497 C 154.768 302.320,154.564 302.994,154.667 302.994 C 154.933 302.994,156.528 299.309,156.342 299.123 C 156.256 299.037,156.091 299.200,155.974 299.484 M271.779 300.898 C 271.018 301.785,270.554 302.595,270.808 302.595 C 270.915 302.595,271.387 302.056,271.856 301.397 C 272.786 300.091,272.739 299.781,271.779 300.898 M220.852 302.741 C 225.173 308.179,241.207 327.715,242.519 329.142 C 244.403 331.190,241.229 327.218,229.198 312.475 C 223.867 305.943,219.426 300.599,219.328 300.599 C 219.230 300.599,219.916 301.563,220.852 302.741 M180.874 302.794 C 180.874 303.014,181.307 304.002,181.836 304.990 C 182.365 305.978,182.798 306.607,182.798 306.387 C 182.798 306.168,182.365 305.180,181.836 304.192 C 181.307 303.204,180.874 302.575,180.874 302.794 M269.062 304.591 C 268.593 305.250,268.299 305.788,268.409 305.788 C 268.518 305.788,268.992 305.250,269.461 304.591 C 269.930 303.932,270.224 303.393,270.114 303.393 C 270.004 303.393,269.531 303.932,269.062 304.591 M153.165 305.607 C 152.228 307.574,152.359 307.909,153.340 306.050 C 153.785 305.206,154.079 304.445,153.993 304.359 C 153.906 304.272,153.534 304.834,153.165 305.607 M246.707 306.986 C 247.176 307.645,247.649 308.184,247.759 308.184 C 247.869 308.184,247.575 307.645,247.106 306.986 C 246.637 306.327,246.163 305.788,246.053 305.788 C 245.944 305.788,246.238 306.327,246.707 306.986 M266.179 308.483 C 264.142 311.167,263.363 312.503,264.841 310.778 C 266.261 309.122,268.355 306.188,268.117 306.188 C 268.010 306.188,267.137 307.221,266.179 308.483 M183.267 307.984 C 183.267 308.204,183.611 309.012,184.032 309.780 C 184.453 310.549,184.797 310.998,184.797 310.778 C 184.797 310.559,184.453 309.750,184.032 308.982 C 183.611 308.214,183.267 307.764,183.267 307.984 M249.330 310.579 C 250.155 311.786,251.186 313.134,251.622 313.573 C 252.581 314.539,250.321 311.266,248.865 309.581 C 248.296 308.922,248.505 309.371,249.330 310.579 M150.532 311.195 C 149.400 313.756,149.516 313.999,150.745 311.638 C 151.298 310.573,151.664 309.615,151.558 309.509 C 151.451 309.402,150.990 310.161,150.532 311.195 M263.018 312.874 C 261.752 314.403,261.296 315.112,261.758 314.835 C 262.268 314.529,264.041 312.176,263.762 312.176 C 263.671 312.176,263.336 312.490,263.018 312.874 M185.662 313.174 C 185.662 313.393,186.006 314.202,186.427 314.970 C 186.848 315.739,187.192 316.188,187.192 315.968 C 187.192 315.749,186.848 314.940,186.427 314.172 C 186.006 313.403,185.662 312.954,185.662 313.174 M148.327 315.974 C 147.465 318.036,147.579 318.269,148.550 316.429 C 148.995 315.585,149.267 314.802,149.154 314.690 C 149.041 314.577,148.669 315.155,148.327 315.974 M167.265 314.885 C 167.265 315.151,167.416 315.369,167.601 315.369 C 167.785 315.369,168.176 316.097,168.470 316.986 C 168.763 317.875,169.155 318.697,169.340 318.811 C 169.826 319.111,168.451 315.681,167.806 314.984 C 167.437 314.585,167.265 314.553,167.265 314.885 M252.661 315.269 C 252.877 315.654,253.525 316.507,254.100 317.166 C 254.988 318.181,254.957 318.075,253.901 316.467 C 252.709 314.651,251.840 313.812,252.661 315.269 M259.436 317.665 C 257.045 320.957,257.182 320.881,256.043 319.553 L 255.024 318.363 255.882 319.661 C 256.355 320.374,256.887 320.958,257.066 320.958 C 257.244 320.958,257.826 320.374,258.360 319.661 C 258.893 318.947,259.833 317.690,260.450 316.866 C 261.067 316.043,261.466 315.369,261.337 315.369 C 261.209 315.369,260.353 316.402,259.436 317.665 M166.133 317.582 C 165.464 319.050,165.591 319.363,166.315 318.029 C 166.652 317.405,166.854 316.821,166.763 316.729 C 166.671 316.638,166.388 317.022,166.133 317.582 M188.041 318.463 C 188.063 318.863,189.583 321.627,189.604 321.306 C 189.632 320.893,188.428 318.164,188.218 318.164 C 188.111 318.164,188.031 318.298,188.041 318.463 M145.671 321.657 C 143.792 325.731,143.286 326.946,143.470 326.946 C 143.631 326.946,145.596 322.948,146.756 320.259 C 147.817 317.801,146.912 318.967,145.671 321.657 M170.210 320.958 C 170.560 322.254,171.766 324.974,171.921 324.819 C 172.012 324.728,171.627 323.688,171.067 322.507 C 170.506 321.326,170.121 320.629,170.210 320.958 M163.872 322.816 C 163.537 323.618,163.355 324.366,163.468 324.479 C 163.580 324.592,163.673 324.586,163.673 324.467 C 163.673 324.347,163.945 323.599,164.277 322.803 C 164.609 322.008,164.791 321.357,164.681 321.357 C 164.572 321.357,164.208 322.014,163.872 322.816 M273.172 326.048 C 268.489 331.659,268.112 332.136,268.351 332.136 C 268.452 332.136,269.766 330.654,271.270 328.842 C 272.775 327.031,274.801 324.606,275.774 323.453 C 276.746 322.300,277.440 321.357,277.315 321.357 C 277.190 321.357,275.326 323.468,273.172 326.048 M190.591 323.948 C 191.274 325.582,191.987 326.859,192.004 326.480 C 192.025 326.019,190.458 322.555,190.228 322.555 C 190.108 322.555,190.271 323.182,190.591 323.948 M161.730 327.798 C 161.257 328.935,160.938 329.933,161.020 330.015 C 161.102 330.097,161.565 329.243,162.049 328.117 C 162.534 326.991,162.853 325.994,162.760 325.900 C 162.666 325.806,162.203 326.660,161.730 327.798 M172.483 326.239 C 172.438 326.712,173.738 329.788,173.911 329.616 C 173.997 329.529,173.718 328.668,173.290 327.703 C 172.862 326.738,172.499 326.079,172.483 326.239 M193.032 329.222 C 193.991 331.389,194.411 332.130,194.411 331.653 C 194.411 331.230,192.422 326.946,192.226 326.946 C 192.116 326.946,192.479 327.970,193.032 329.222 M141.988 329.559 C 141.050 331.526,141.182 331.861,142.162 330.002 C 142.608 329.158,142.901 328.397,142.815 328.311 C 142.729 328.224,142.356 328.786,141.988 329.559 M174.686 331.737 C 174.831 332.285,175.203 333.184,175.513 333.733 L 176.077 334.731 175.813 333.733 C 175.668 333.184,175.296 332.285,174.986 331.737 L 174.422 330.739 174.686 331.737 M159.335 333.387 C 158.862 334.524,158.542 335.522,158.624 335.604 C 158.706 335.686,159.170 334.832,159.654 333.706 C 160.138 332.580,160.458 331.582,160.364 331.489 C 160.271 331.395,159.807 332.249,159.335 333.387 M195.454 334.431 C 196.022 335.694,196.832 337.515,197.255 338.480 C 197.678 339.444,198.111 340.146,198.218 340.039 C 198.324 339.932,197.590 338.111,196.586 335.990 C 194.621 331.844,193.750 330.643,195.454 334.431 M268.675 333.134 C 269.862 334.804,274.331 340.120,274.547 340.120 C 274.672 340.120,274.512 339.805,274.192 339.421 C 273.872 339.037,272.643 337.555,271.461 336.128 C 269.046 333.210,267.705 331.769,268.675 333.134 M139.593 334.749 C 138.655 336.716,138.787 337.050,139.767 335.192 C 140.212 334.348,140.506 333.587,140.420 333.500 C 140.333 333.414,139.961 333.976,139.593 334.749 M240.635 338.822 C 238.138 341.841,233.060 347.994,229.352 352.495 C 225.643 356.996,222.251 361.083,221.814 361.577 C 221.376 362.071,221.129 362.475,221.263 362.475 C 221.463 362.475,228.714 353.794,244.020 335.230 C 244.880 334.187,245.492 333.333,245.380 333.333 C 245.268 333.333,243.133 335.803,240.635 338.822 M157.119 338.556 C 156.753 339.471,156.528 340.294,156.620 340.386 C 156.711 340.477,157.086 339.804,157.452 338.889 C 157.818 337.974,158.042 337.151,157.951 337.059 C 157.859 336.968,157.485 337.641,157.119 338.556 M176.996 337.325 C 177.346 338.621,178.552 341.341,178.708 341.186 C 178.798 341.096,178.413 340.055,177.853 338.874 C 177.293 337.693,176.907 336.996,176.996 337.325 M136.960 340.337 C 135.827 342.898,135.943 343.141,137.172 340.779 C 137.726 339.715,138.092 338.757,137.985 338.650 C 137.878 338.544,137.417 339.303,136.960 340.337 M198.419 340.569 C 198.392 340.994,200.377 345.309,200.599 345.309 C 200.715 345.309,200.560 344.713,200.255 343.984 C 199.560 342.320,198.440 340.238,198.419 340.569 M275.307 341.417 C 275.744 341.911,278.216 344.875,280.799 348.004 C 283.382 351.133,285.602 353.693,285.732 353.693 C 285.861 353.693,285.610 353.288,285.172 352.794 C 284.735 352.300,282.263 349.336,279.680 346.208 C 277.097 343.079,274.877 340.519,274.747 340.519 C 274.618 340.519,274.869 340.923,275.307 341.417 M155.950 342.216 C 156.052 342.380,161.234 342.515,167.465 342.515 C 173.697 342.515,178.878 342.380,178.980 342.216 C 179.082 342.051,173.900 341.916,167.465 341.916 C 161.030 341.916,155.848 342.051,155.950 342.216 M134.726 345.159 C 134.179 346.394,133.740 347.517,133.749 347.654 C 133.770 347.986,134.890 345.903,135.585 344.240 C 136.530 341.978,135.775 342.785,134.726 345.159 M257.826 346.407 C 258.553 347.340,259.236 348.104,259.342 348.104 C 259.654 348.104,257.987 345.889,257.212 345.274 C 256.822 344.964,257.098 345.474,257.826 346.407 M255.808 346.407 C 254.483 347.943,249.876 354.092,250.051 354.092 C 250.201 354.092,252.521 351.210,256.398 346.208 C 256.988 345.446,256.493 345.613,255.808 346.407 M201.231 346.707 C 201.231 346.926,201.575 347.735,201.996 348.503 C 202.417 349.271,202.761 349.721,202.761 349.501 C 202.761 349.281,202.417 348.473,201.996 347.705 C 201.575 346.936,201.231 346.487,201.231 346.707 M133.169 348.445 C 132.659 349.271,132.171 350.923,132.497 350.722 C 132.694 350.600,133.044 349.961,133.273 349.302 C 133.672 348.158,133.619 347.718,133.169 348.445 M260.907 350.499 C 261.732 351.707,262.763 353.054,263.199 353.493 C 264.158 354.459,261.897 351.186,260.442 349.501 C 259.873 348.842,260.082 349.291,260.907 350.499 M203.230 351.098 C 203.230 351.317,203.663 352.305,204.192 353.293 C 204.721 354.281,205.154 354.910,205.154 354.691 C 205.154 354.471,204.721 353.483,204.192 352.495 C 203.663 351.507,203.230 350.878,203.230 351.098 M130.614 353.912 C 129.412 356.387,129.546 356.733,130.785 354.352 C 131.338 353.288,131.723 352.349,131.640 352.265 C 131.556 352.182,131.095 352.923,130.614 353.912 M286.267 354.722 C 286.619 355.144,289.119 358.184,291.823 361.477 C 294.528 364.770,297.008 367.779,297.334 368.164 C 297.898 368.827,297.335 368.862,286.321 368.862 L 274.715 368.862 272.682 366.068 C 271.564 364.531,270.547 363.273,270.421 363.273 C 270.163 363.273,272.766 366.984,273.992 368.363 C 274.852 369.331,298.475 369.841,298.137 368.885 C 297.934 368.311,286.595 354.516,286.080 354.217 C 285.832 354.073,285.916 354.300,286.267 354.722 M184.459 354.691 C 184.459 354.910,184.716 355.539,185.030 356.088 C 185.344 356.637,185.600 356.906,185.600 356.687 C 185.600 356.467,185.344 355.838,185.030 355.289 C 184.716 354.741,184.459 354.471,184.459 354.691 M249.022 355.190 C 247.697 356.725,243.090 362.874,243.265 362.874 C 243.415 362.874,245.734 359.993,249.611 354.990 C 250.202 354.228,249.707 354.396,249.022 355.190 M264.671 355.689 C 265.140 356.347,265.613 356.886,265.723 356.886 C 265.833 356.886,265.539 356.347,265.070 355.689 C 264.601 355.030,264.127 354.491,264.017 354.491 C 263.908 354.491,264.202 355.030,264.671 355.689 M205.625 356.287 C 205.625 356.507,206.058 357.495,206.587 358.483 C 207.116 359.471,207.549 360.100,207.549 359.880 C 207.549 359.661,207.116 358.673,206.587 357.685 C 206.058 356.697,205.625 356.068,205.625 356.287 M148.348 358.927 C 147.761 360.279,147.351 361.456,147.436 361.541 C 147.522 361.627,148.072 360.590,148.658 359.237 C 149.245 357.884,149.655 356.708,149.570 356.622 C 149.484 356.537,148.934 357.574,148.348 358.927 M128.367 358.688 C 127.505 360.751,127.619 360.984,128.589 359.144 C 129.035 358.300,129.307 357.517,129.194 357.404 C 129.081 357.291,128.709 357.869,128.367 358.688 M185.778 357.685 C 186.129 358.981,187.335 361.701,187.490 361.545 C 187.580 361.455,187.196 360.414,186.635 359.233 C 186.075 358.052,185.689 357.355,185.778 357.685 M267.007 358.882 C 267.698 359.870,268.730 361.218,269.299 361.876 C 269.868 362.535,269.659 362.086,268.834 360.878 C 268.009 359.671,266.978 358.323,266.542 357.884 C 266.106 357.445,266.315 357.894,267.007 358.882 M208.002 361.577 C 208.026 361.980,209.939 365.536,209.962 365.220 C 209.990 364.835,208.369 361.277,208.165 361.277 C 208.065 361.277,207.992 361.412,208.002 361.577 M187.774 362.475 C 188.125 363.771,189.331 366.491,189.486 366.336 C 189.576 366.245,189.192 365.205,188.631 364.024 C 188.071 362.843,187.685 362.146,187.774 362.475 M125.782 364.289 C 124.649 366.850,124.766 367.093,125.994 364.731 C 126.548 363.667,126.914 362.709,126.807 362.602 C 126.701 362.496,126.239 363.255,125.782 364.289 M146.507 362.959 C 146.507 363.078,146.235 363.827,145.903 364.622 C 145.571 365.417,145.400 366.068,145.524 366.068 C 145.873 366.068,146.981 363.216,146.730 362.964 C 146.607 362.842,146.507 362.839,146.507 362.959 M218.487 365.688 C 217.211 367.236,216.108 368.673,216.035 368.882 C 215.876 369.335,238.581 369.415,238.861 368.962 C 238.963 368.797,233.927 368.713,227.671 368.775 L 216.296 368.886 218.753 365.880 C 220.104 364.227,221.118 362.874,221.007 362.874 C 220.896 362.874,219.762 364.141,218.487 365.688 M240.911 365.768 C 239.893 367.141,239.627 367.635,240.318 366.866 C 241.848 365.166,243.242 363.273,242.965 363.273 C 242.853 363.273,241.929 364.396,240.911 365.768 M210.520 366.966 C 210.662 367.350,210.886 367.931,211.018 368.257 C 211.226 368.770,209.848 368.864,200.739 368.962 L 190.220 369.076 200.941 369.169 L 211.663 369.261 211.392 368.164 C 211.243 367.560,210.928 366.886,210.691 366.667 C 210.392 366.388,210.340 366.479,210.520 366.966 M124.166 367.638 C 123.308 369.241,123.429 369.261,133.918 369.261 C 144.065 369.261,144.084 369.260,144.519 368.363 C 144.912 367.553,144.899 367.533,144.389 368.164 C 143.879 368.795,142.875 368.862,133.998 368.862 L 124.171 368.862 124.551 367.864 C 125.000 366.683,124.754 366.539,124.166 367.638 " stroke="none" fill="#fcdd5e" fill-rule="evenodd"></path></g></svg>